<?xml version="1.0" encoding="UTF-8"?>
<svg xmlns="http://www.w3.org/2000/svg" width="128" height="128" viewBox="0 0 128 128" role="img" aria-label="Logo Juego C.S.T.">
  <defs>
    <linearGradient id="g1" x1="0" y1="0" x2="1" y2="1">
      <stop offset="0%" stop-color="#0ea5e9"/>
      <stop offset="100%" stop-color="#22c55e"/>
    </linearGradient>
    <filter id="shadow" x="-20%" y="-20%" width="140%" height="140%">
      <feDropShadow dx="0" dy="2" stdDeviation="2" flood-opacity="0.15"/>
    </filter>
  </defs>
  <rect x="8" y="8" width="112" height="112" rx="20" fill="#0f172a"/>
  <g filter="url(#shadow)">
    <circle cx="64" cy="64" r="40" fill="url(#g1)"/>
  </g>
  <!-- Monograma CST -->
  <g fill="#0f172a">
    <path d="M48 70c-2 0-4-2-4-6s2-6 6-6h10v-8H50c-10 0-14 6-14 14s4 14 12 14h12v-8H48z"/>
    <path d="M66 78h8V50h-8v28z"/>
    <path d="M92 58c0-6-4-8-10-8h-2v8h2c2 0 2 1 2 2v10c0 1 0 2-2 2h-2v8h2c8 0 10-4 10-10V58z"/>
  </g>
</svg>
